<svg width="311" height="316" viewBox="0 0 311 316" fill="none" xmlns="http://www.w3.org/2000/svg">
<rect width="311" height="316" fill="white"/>
<path d="M155.5 0L192.208 120.577H310.998L214.895 195.097L251.603 315.673L155.5 241.153L59.3971 315.673L96.1051 195.097L0.0022583 120.577H118.792L155.5 0Z" fill="#FBE7E7"/>
<path d="M129.936 126.72L141.552 177.024L170.544 126.72H186.288L185.808 129.12L180.528 129.6C179.504 129.664 178.832 129.92 178.512 130.368C178.256 130.752 177.936 132.064 177.552 134.304L168.72 184.416C168.336 186.592 168.208 187.904 168.336 188.352C168.464 188.736 169.008 188.992 169.968 189.12L175.152 189.6L174.768 192H153.744L154.128 189.6L159.504 189.12C160.528 188.992 161.168 188.736 161.424 188.352C161.744 187.904 162.096 186.592 162.48 184.416L171.984 130.752L140.88 184.32H136.848L124.272 129.888L114.96 184.416C114.576 186.592 114.448 187.904 114.576 188.352C114.704 188.736 115.248 188.992 116.208 189.12L121.392 189.6L121.008 192H102.864L103.248 189.6L108.624 189.12C109.52 188.992 110.128 188.736 110.448 188.352C110.832 187.904 111.216 186.592 111.6 184.416L120.432 134.304C120.816 132.064 120.944 130.752 120.816 130.368C120.688 129.92 120.144 129.664 119.184 129.6L113.904 129.12L114.384 126.72H129.936ZM195.748 129.12L196.228 126.72H217.252L216.772 129.12L211.492 129.6C210.788 129.664 210.276 129.792 209.956 129.984C209.636 130.112 209.38 130.496 209.188 131.136C208.996 131.712 208.772 132.768 208.516 134.304L199.684 184.416C199.3 186.656 199.172 187.968 199.3 188.352C199.428 188.736 199.972 188.992 200.932 189.12L206.116 189.6L205.732 192H184.708L185.092 189.6L190.468 189.12C191.172 189.056 191.684 188.96 192.004 188.832C192.324 188.64 192.58 188.224 192.772 187.584C192.964 186.944 193.188 185.888 193.444 184.416L202.276 134.304C202.66 132.064 202.788 130.752 202.66 130.368C202.532 129.92 201.988 129.664 201.028 129.6L195.748 129.12Z" fill="#E393E0"/>
</svg>
